<?xml version="1.0" encoding="UTF-8"?>
<!DOCTYPE svg PUBLIC "-//W3C//DTD SVG 1.1//EN" "http://www.w3.org/Graphics/SVG/1.1/DTD/svg11.dtd">
<svg xmlns="http://www.w3.org/2000/svg" version="1.1" width="900px" height="1044px" style="shape-rendering:geometricPrecision; text-rendering:geometricPrecision; image-rendering:optimizeQuality; fill-rule:evenodd; clip-rule:evenodd" xmlns:xlink="http://www.w3.org/1999/xlink">
<g><path style="opacity:1" fill="#FFFFFF" d="M -0.5,-0.5 C 32.8333,-0.5 66.1667,-0.5 99.5,-0.5C 311.337,0.576194 523.337,1.90953 735.5,3.5C 786.803,106.11 839.636,207.777 894,308.5C 894.667,309.5 894.667,310.5 894,311.5C 839.833,367.667 785.667,423.833 731.5,480C 650.498,480.669 569.498,480.503 488.5,479.5C 487.285,480.779 487.618,481.779 489.5,482.5C 491.853,484.86 493.853,487.527 495.5,490.5C 495.427,492.027 496.094,493.027 497.5,493.5C 503.521,500.861 509.187,508.528 514.5,516.5C 514.427,518.027 515.094,519.027 516.5,519.5C 518.853,521.86 520.853,524.527 522.5,527.5C 522.427,529.027 523.094,530.027 524.5,530.5C 526.853,532.86 528.853,535.527 530.5,538.5C 530.427,540.027 531.094,541.027 532.5,541.5C 535.975,545.104 538.975,549.104 541.5,553.5C 541.427,555.027 542.094,556.027 543.5,556.5C 545.853,558.86 547.853,561.527 549.5,564.5C 549.427,566.027 550.094,567.027 551.5,567.5C 553.853,569.86 555.853,572.527 557.5,575.5C 557.427,577.027 558.094,578.027 559.5,578.5C 565.521,585.861 571.187,593.528 576.5,601.5C 576.427,603.027 577.094,604.027 578.5,604.5C 580.853,606.86 582.853,609.527 584.5,612.5C 584.427,614.027 585.094,615.027 586.5,615.5C 588.853,617.86 590.853,620.527 592.5,623.5C 592.427,625.027 593.094,626.027 594.5,626.5C 597.975,630.104 600.975,634.104 603.5,638.5C 603.427,640.027 604.094,641.027 605.5,641.5C 607.853,643.86 609.853,646.527 611.5,649.5C 611.427,651.027 612.094,652.027 613.5,652.5C 615.853,654.86 617.853,657.527 619.5,660.5C 619.427,662.027 620.094,663.027 621.5,663.5C 627.521,670.861 633.187,678.528 638.5,686.5C 638.427,688.027 639.094,689.027 640.5,689.5C 642.853,691.86 644.853,694.527 646.5,697.5C 646.427,699.027 647.094,700.027 648.5,700.5C 650.853,702.86 652.853,705.527 654.5,708.5C 654.427,710.027 655.094,711.027 656.5,711.5C 659.975,715.104 662.975,719.104 665.5,723.5C 665.427,725.027 666.094,726.027 667.5,726.5C 669.853,728.86 671.853,731.527 673.5,734.5C 673.427,736.027 674.094,737.027 675.5,737.5C 677.853,739.86 679.853,742.527 681.5,745.5C 681.427,747.027 682.094,748.027 683.5,748.5C 689.521,755.861 695.187,763.528 700.5,771.5C 700.427,773.027 701.094,774.027 702.5,774.5C 704.853,776.86 706.853,779.527 708.5,782.5C 708.427,784.027 709.094,785.027 710.5,785.5C 712.853,787.86 714.853,790.527 716.5,793.5C 716.427,795.027 717.094,796.027 718.5,796.5C 721.975,800.104 724.975,804.104 727.5,808.5C 727.427,810.027 728.094,811.027 729.5,811.5C 731.853,813.86 733.853,816.527 735.5,819.5C 735.427,821.027 736.094,822.027 737.5,822.5C 739.853,824.86 741.853,827.527 743.5,830.5C 743.427,832.027 744.094,833.027 745.5,833.5C 751.521,840.861 757.187,848.528 762.5,856.5C 762.427,858.027 763.094,859.027 764.5,859.5C 766.853,861.86 768.853,864.527 770.5,867.5C 770.427,869.027 771.094,870.027 772.5,870.5C 774.853,872.86 776.853,875.527 778.5,878.5C 778.427,880.027 779.094,881.027 780.5,881.5C 783.975,885.104 786.975,889.104 789.5,893.5C 789.427,895.027 790.094,896.027 791.5,896.5C 793.853,898.86 795.853,901.527 797.5,904.5C 797.427,906.027 798.094,907.027 799.5,907.5C 801.853,909.86 803.853,912.527 805.5,915.5C 805.427,917.027 806.094,918.027 807.5,918.5C 813.521,925.861 819.187,933.528 824.5,941.5C 824.427,943.027 825.094,944.027 826.5,944.5C 828.853,946.86 830.853,949.527 832.5,952.5C 832.427,954.027 833.094,955.027 834.5,955.5C 836.853,957.86 838.853,960.527 840.5,963.5C 840.427,965.027 841.094,966.027 842.5,966.5C 845.975,970.104 848.975,974.104 851.5,978.5C 851.427,980.027 852.094,981.027 853.5,981.5C 855.853,983.86 857.853,986.527 859.5,989.5C 859.427,991.027 860.094,992.027 861.5,992.5C 863.853,994.86 865.853,997.527 867.5,1000.5C 867.427,1002.03 868.094,1003.03 869.5,1003.5C 875.521,1010.86 881.187,1018.53 886.5,1026.5C 886.427,1028.03 887.094,1029.03 888.5,1029.5C 890.853,1031.86 892.853,1034.53 894.5,1037.5C 894.414,1038.5 894.748,1039.33 895.5,1040C 891.644,1040.18 887.977,1040.68 884.5,1041.5C 854.669,1042 825.002,1042.67 795.5,1043.5C 772.167,1043.5 748.833,1043.5 725.5,1043.5C 655.546,943.1 585.212,842.933 514.5,743C 354.832,742.833 195.166,742.333 35.5,741.5C 54.5135,702.807 73.5135,664.14 92.5,625.5C 205.835,625.833 319.169,625.5 432.5,624.5C 432.376,623.893 432.043,623.56 431.5,623.5C 360.344,523.192 289.677,422.525 219.5,321.5C 218.377,320.243 217.711,320.576 217.5,322.5C 191.988,373.691 166.321,424.858 140.5,476C 97.8346,476.5 55.168,476.667 12.5,476.5C 8.0293,477.089 4.0293,476.423 0.5,474.5C 47.0266,385.948 93.6932,297.448 140.5,209C 190.5,208.333 240.5,208.333 290.5,209C 291.883,210.271 292.883,211.771 293.5,213.5C 293.427,215.027 294.094,216.027 295.5,216.5C 297.853,218.86 299.853,221.527 301.5,224.5C 301.427,226.027 302.094,227.027 303.5,227.5C 305.853,229.86 307.853,232.527 309.5,235.5C 309.427,237.027 310.094,238.027 311.5,238.5C 317.521,245.861 323.187,253.528 328.5,261.5C 328.427,263.027 329.094,264.027 330.5,264.5C 332.853,266.86 334.853,269.527 336.5,272.5C 336.427,274.027 337.094,275.027 338.5,275.5C 340.853,277.86 342.853,280.527 344.5,283.5C 344.427,285.027 345.094,286.027 346.5,286.5C 349.975,290.104 352.975,294.104 355.5,298.5C 355.427,300.027 356.094,301.027 357.5,301.5C 359.853,303.86 361.853,306.527 363.5,309.5C 363.427,311.027 364.094,312.027 365.5,312.5C 367.853,314.86 369.853,317.527 371.5,320.5C 371.427,322.027 372.094,323.027 373.5,323.5C 379.521,330.861 385.187,338.528 390.5,346.5C 390.427,348.027 391.094,349.027 392.5,349.5C 394.853,351.86 396.853,354.527 398.5,357.5C 398.427,359.027 399.094,360.027 400.5,360.5C 447.332,361.167 494.332,361.5 541.5,361.5C 588.838,361.5 635.838,360.833 682.5,359.5C 702.712,336.253 723.046,313.086 743.5,290C 715.558,233.283 687.225,176.783 658.5,120.5C 465.167,119.552 271.834,118.719 78.5,118C 52.514,79.8385 26.1806,42.0051 -0.5,4.5C -0.5,2.83333 -0.5,1.16667 -0.5,-0.5 Z"/></g>
<g><path style="opacity:0.816" fill="#FFFFFF" d="M 293.5,213.5 C 294.906,213.973 295.573,214.973 295.5,216.5C 294.094,216.027 293.427,215.027 293.5,213.5 Z"/></g>
<g><path style="opacity:0.627" fill="#FFFFFF" d="M 301.5,224.5 C 302.906,224.973 303.573,225.973 303.5,227.5C 302.094,227.027 301.427,226.027 301.5,224.5 Z"/></g>
<g><path style="opacity:0.878" fill="#FFFFFF" d="M 309.5,235.5 C 310.906,235.973 311.573,236.973 311.5,238.5C 310.094,238.027 309.427,237.027 309.5,235.5 Z"/></g>
<g><path style="opacity:0.816" fill="#FFFFFF" d="M 328.5,261.5 C 329.906,261.973 330.573,262.973 330.5,264.5C 329.094,264.027 328.427,263.027 328.5,261.5 Z"/></g>
<g><path style="opacity:0.627" fill="#FFFFFF" d="M 336.5,272.5 C 337.906,272.973 338.573,273.973 338.5,275.5C 337.094,275.027 336.427,274.027 336.5,272.5 Z"/></g>
<g><path style="opacity:0.878" fill="#FFFFFF" d="M 344.5,283.5 C 345.906,283.973 346.573,284.973 346.5,286.5C 345.094,286.027 344.427,285.027 344.5,283.5 Z"/></g>
<g><path style="opacity:0.816" fill="#FFFFFF" d="M 355.5,298.5 C 356.906,298.973 357.573,299.973 357.5,301.5C 356.094,301.027 355.427,300.027 355.5,298.5 Z"/></g>
<g><path style="opacity:0.627" fill="#FFFFFF" d="M 363.5,309.5 C 364.906,309.973 365.573,310.973 365.5,312.5C 364.094,312.027 363.427,311.027 363.5,309.5 Z"/></g>
<g><path style="opacity:0.314" fill="#FFFFFF" d="M 219.5,321.5 C 218.833,321.833 218.167,322.167 217.5,322.5C 217.711,320.576 218.377,320.243 219.5,321.5 Z"/></g>
<g><path style="opacity:0.878" fill="#FFFFFF" d="M 371.5,320.5 C 372.906,320.973 373.573,321.973 373.5,323.5C 372.094,323.027 371.427,322.027 371.5,320.5 Z"/></g>
<g><path style="opacity:0.816" fill="#FFFFFF" d="M 390.5,346.5 C 391.906,346.973 392.573,347.973 392.5,349.5C 391.094,349.027 390.427,348.027 390.5,346.5 Z"/></g>
<g><path style="opacity:0.627" fill="#FFFFFF" d="M 398.5,357.5 C 399.906,357.973 400.573,358.973 400.5,360.5C 399.094,360.027 398.427,359.027 398.5,357.5 Z"/></g>
<g><path style="opacity:0.251" fill="#FFFFFF" d="M 682.5,359.5 C 635.838,360.833 588.838,361.5 541.5,361.5C 494.332,361.5 447.332,361.167 400.5,360.5C 494.571,360.831 588.571,360.497 682.5,359.5 Z"/></g>
<g><path style="opacity:0.251" fill="#FFFFFF" d="M -0.5,474.5 C -0.166667,474.5 0.166667,474.5 0.5,474.5C 4.0293,476.423 8.0293,477.089 12.5,476.5C 8.36559,477.485 4.03225,477.818 -0.5,477.5C -0.5,476.5 -0.5,475.5 -0.5,474.5 Z"/></g>
<g><path style="opacity:0.627" fill="#FFFFFF" d="M 488.5,479.5 C 489.11,480.391 489.443,481.391 489.5,482.5C 487.618,481.779 487.285,480.779 488.5,479.5 Z"/></g>
<g><path style="opacity:0.878" fill="#FFFFFF" d="M 495.5,490.5 C 496.906,490.973 497.573,491.973 497.5,493.5C 496.094,493.027 495.427,492.027 495.5,490.5 Z"/></g>
<g><path style="opacity:0.816" fill="#FFFFFF" d="M 514.5,516.5 C 515.906,516.973 516.573,517.973 516.5,519.5C 515.094,519.027 514.427,518.027 514.5,516.5 Z"/></g>
<g><path style="opacity:0.627" fill="#FFFFFF" d="M 522.5,527.5 C 523.906,527.973 524.573,528.973 524.5,530.5C 523.094,530.027 522.427,529.027 522.5,527.5 Z"/></g>
<g><path style="opacity:0.878" fill="#FFFFFF" d="M 530.5,538.5 C 531.906,538.973 532.573,539.973 532.5,541.5C 531.094,541.027 530.427,540.027 530.5,538.5 Z"/></g>
<g><path style="opacity:0.816" fill="#FFFFFF" d="M 541.5,553.5 C 542.906,553.973 543.573,554.973 543.5,556.5C 542.094,556.027 541.427,555.027 541.5,553.5 Z"/></g>
<g><path style="opacity:0.627" fill="#FFFFFF" d="M 549.5,564.5 C 550.906,564.973 551.573,565.973 551.5,567.5C 550.094,567.027 549.427,566.027 549.5,564.5 Z"/></g>
<g><path style="opacity:0.878" fill="#FFFFFF" d="M 557.5,575.5 C 558.906,575.973 559.573,576.973 559.5,578.5C 558.094,578.027 557.427,577.027 557.5,575.5 Z"/></g>
<g><path style="opacity:0.816" fill="#FFFFFF" d="M 576.5,601.5 C 577.906,601.973 578.573,602.973 578.5,604.5C 577.094,604.027 576.427,603.027 576.5,601.5 Z"/></g>
<g><path style="opacity:0.627" fill="#FFFFFF" d="M 584.5,612.5 C 585.906,612.973 586.573,613.973 586.5,615.5C 585.094,615.027 584.427,614.027 584.5,612.5 Z"/></g>
<g><path style="opacity:0.502" fill="#FFFFFF" d="M 431.5,623.5 C 432.043,623.56 432.376,623.893 432.5,624.5C 319.169,625.5 205.835,625.833 92.5,625.5C 205.5,624.833 318.5,624.167 431.5,623.5 Z"/></g>
<g><path style="opacity:0.878" fill="#FFFFFF" d="M 592.5,623.5 C 593.906,623.973 594.573,624.973 594.5,626.5C 593.094,626.027 592.427,625.027 592.5,623.5 Z"/></g>
<g><path style="opacity:0.816" fill="#FFFFFF" d="M 603.5,638.5 C 604.906,638.973 605.573,639.973 605.5,641.5C 604.094,641.027 603.427,640.027 603.5,638.5 Z"/></g>
<g><path style="opacity:0.627" fill="#FFFFFF" d="M 611.5,649.5 C 612.906,649.973 613.573,650.973 613.5,652.5C 612.094,652.027 611.427,651.027 611.5,649.5 Z"/></g>
<g><path style="opacity:0.878" fill="#FFFFFF" d="M 619.5,660.5 C 620.906,660.973 621.573,661.973 621.5,663.5C 620.094,663.027 619.427,662.027 619.5,660.5 Z"/></g>
<g><path style="opacity:0.816" fill="#FFFFFF" d="M 638.5,686.5 C 639.906,686.973 640.573,687.973 640.5,689.5C 639.094,689.027 638.427,688.027 638.5,686.5 Z"/></g>
<g><path style="opacity:0.627" fill="#FFFFFF" d="M 646.5,697.5 C 647.906,697.973 648.573,698.973 648.5,700.5C 647.094,700.027 646.427,699.027 646.5,697.5 Z"/></g>
<g><path style="opacity:0.878" fill="#FFFFFF" d="M 654.5,708.5 C 655.906,708.973 656.573,709.973 656.5,711.5C 655.094,711.027 654.427,710.027 654.5,708.5 Z"/></g>
<g><path style="opacity:0.816" fill="#FFFFFF" d="M 665.5,723.5 C 666.906,723.973 667.573,724.973 667.5,726.5C 666.094,726.027 665.427,725.027 665.5,723.5 Z"/></g>
<g><path style="opacity:0.627" fill="#FFFFFF" d="M 673.5,734.5 C 674.906,734.973 675.573,735.973 675.5,737.5C 674.094,737.027 673.427,736.027 673.5,734.5 Z"/></g>
<g><path style="opacity:0.878" fill="#FFFFFF" d="M 681.5,745.5 C 682.906,745.973 683.573,746.973 683.5,748.5C 682.094,748.027 681.427,747.027 681.5,745.5 Z"/></g>
<g><path style="opacity:0.816" fill="#FFFFFF" d="M 700.5,771.5 C 701.906,771.973 702.573,772.973 702.5,774.5C 701.094,774.027 700.427,773.027 700.5,771.5 Z"/></g>
<g><path style="opacity:0.627" fill="#FFFFFF" d="M 708.5,782.5 C 709.906,782.973 710.573,783.973 710.5,785.5C 709.094,785.027 708.427,784.027 708.5,782.5 Z"/></g>
<g><path style="opacity:0.878" fill="#FFFFFF" d="M 716.5,793.5 C 717.906,793.973 718.573,794.973 718.5,796.5C 717.094,796.027 716.427,795.027 716.5,793.5 Z"/></g>
<g><path style="opacity:0.816" fill="#FFFFFF" d="M 727.5,808.5 C 728.906,808.973 729.573,809.973 729.5,811.5C 728.094,811.027 727.427,810.027 727.5,808.5 Z"/></g>
<g><path style="opacity:0.627" fill="#FFFFFF" d="M 735.5,819.5 C 736.906,819.973 737.573,820.973 737.5,822.5C 736.094,822.027 735.427,821.027 735.5,819.5 Z"/></g>
<g><path style="opacity:0.878" fill="#FFFFFF" d="M 743.5,830.5 C 744.906,830.973 745.573,831.973 745.5,833.5C 744.094,833.027 743.427,832.027 743.5,830.5 Z"/></g>
<g><path style="opacity:0.816" fill="#FFFFFF" d="M 762.5,856.5 C 763.906,856.973 764.573,857.973 764.5,859.5C 763.094,859.027 762.427,858.027 762.5,856.5 Z"/></g>
<g><path style="opacity:0.627" fill="#FFFFFF" d="M 770.5,867.5 C 771.906,867.973 772.573,868.973 772.5,870.5C 771.094,870.027 770.427,869.027 770.5,867.5 Z"/></g>
<g><path style="opacity:0.878" fill="#FFFFFF" d="M 778.5,878.5 C 779.906,878.973 780.573,879.973 780.5,881.5C 779.094,881.027 778.427,880.027 778.5,878.5 Z"/></g>
<g><path style="opacity:0.816" fill="#FFFFFF" d="M 789.5,893.5 C 790.906,893.973 791.573,894.973 791.5,896.5C 790.094,896.027 789.427,895.027 789.5,893.5 Z"/></g>
<g><path style="opacity:0.627" fill="#FFFFFF" d="M 797.5,904.5 C 798.906,904.973 799.573,905.973 799.5,907.5C 798.094,907.027 797.427,906.027 797.5,904.5 Z"/></g>
<g><path style="opacity:0.878" fill="#FFFFFF" d="M 805.5,915.5 C 806.906,915.973 807.573,916.973 807.5,918.5C 806.094,918.027 805.427,917.027 805.5,915.5 Z"/></g>
<g><path style="opacity:0.816" fill="#FFFFFF" d="M 824.5,941.5 C 825.906,941.973 826.573,942.973 826.5,944.5C 825.094,944.027 824.427,943.027 824.5,941.5 Z"/></g>
<g><path style="opacity:0.627" fill="#FFFFFF" d="M 832.5,952.5 C 833.906,952.973 834.573,953.973 834.5,955.5C 833.094,955.027 832.427,954.027 832.5,952.5 Z"/></g>
<g><path style="opacity:0.878" fill="#FFFFFF" d="M 840.5,963.5 C 841.906,963.973 842.573,964.973 842.5,966.5C 841.094,966.027 840.427,965.027 840.5,963.5 Z"/></g>
<g><path style="opacity:0.816" fill="#FFFFFF" d="M 851.5,978.5 C 852.906,978.973 853.573,979.973 853.5,981.5C 852.094,981.027 851.427,980.027 851.5,978.5 Z"/></g>
<g><path style="opacity:0.627" fill="#FFFFFF" d="M 859.5,989.5 C 860.906,989.973 861.573,990.973 861.5,992.5C 860.094,992.027 859.427,991.027 859.5,989.5 Z"/></g>
<g><path style="opacity:0.878" fill="#FFFFFF" d="M 867.5,1000.5 C 868.906,1000.97 869.573,1001.97 869.5,1003.5C 868.094,1003.03 867.427,1002.03 867.5,1000.5 Z"/></g>
<g><path style="opacity:0.816" fill="#FFFFFF" d="M 886.5,1026.5 C 887.906,1026.97 888.573,1027.97 888.5,1029.5C 887.094,1029.03 886.427,1028.03 886.5,1026.5 Z"/></g>
<g><path style="opacity:0.753" fill="#FFFFFF" d="M 894.5,1037.5 C 895.837,1038.31 896.837,1039.48 897.5,1041C 893.179,1041.5 888.846,1041.67 884.5,1041.5C 887.977,1040.68 891.644,1040.18 895.5,1040C 894.748,1039.33 894.414,1038.5 894.5,1037.5 Z"/></g>
</svg>
